<mxfile host="app.diagrams.net" modified="2021-11-24T13:19:46.968Z" agent="5.0 (Windows)" etag="Ki5mdXwlJ7qEProp08PH" version="14.8.6" type="github">
  <diagram id="_kSJpHXO925enUc-mLP0" name="Page-1">
    <mxGraphModel dx="1846" dy="1678" grid="1" gridSize="10" guides="1" tooltips="1" connect="1" arrows="1" fold="1" page="1" pageScale="1" pageWidth="827" pageHeight="1169" math="1" shadow="0">
      <root>
        <mxCell id="0" />
        <mxCell id="1" parent="0" />
        <mxCell id="F0uoHHYgL6mMz67kCVjY-32" value="" style="rounded=1;whiteSpace=wrap;html=1;absoluteArcSize=1;arcSize=14;strokeWidth=2;" vertex="1" parent="1">
          <mxGeometry x="-370" y="360" width="160" height="260" as="geometry" />
        </mxCell>
        <mxCell id="F0uoHHYgL6mMz67kCVjY-13" value="" style="rounded=1;whiteSpace=wrap;html=1;absoluteArcSize=1;arcSize=14;strokeWidth=2;" vertex="1" parent="1">
          <mxGeometry x="900" y="110" width="170" height="270" as="geometry" />
        </mxCell>
        <mxCell id="F0uoHHYgL6mMz67kCVjY-11" value="" style="rounded=1;whiteSpace=wrap;html=1;absoluteArcSize=1;arcSize=14;strokeWidth=2;" vertex="1" parent="1">
          <mxGeometry x="-55" y="-10" width="170" height="270" as="geometry" />
        </mxCell>
        <mxCell id="F0uoHHYgL6mMz67kCVjY-1" value="" style="whiteSpace=wrap;html=1;aspect=fixed;" vertex="1" parent="1">
          <mxGeometry x="10" y="85" width="80" height="80" as="geometry" />
        </mxCell>
        <mxCell id="F0uoHHYgL6mMz67kCVjY-2" value="" style="whiteSpace=wrap;html=1;aspect=fixed;" vertex="1" parent="1">
          <mxGeometry x="-10" y="105" width="80" height="80" as="geometry" />
        </mxCell>
        <mxCell id="F0uoHHYgL6mMz67kCVjY-3" value="" style="whiteSpace=wrap;html=1;aspect=fixed;" vertex="1" parent="1">
          <mxGeometry x="-30" y="125" width="80" height="80" as="geometry" />
        </mxCell>
        <mxCell id="F0uoHHYgL6mMz67kCVjY-6" value="AMD" style="rounded=1;whiteSpace=wrap;html=1;" vertex="1" parent="1">
          <mxGeometry x="210" y="-40" width="350" height="60" as="geometry" />
        </mxCell>
        <mxCell id="F0uoHHYgL6mMz67kCVjY-7" value="&lt;code class=&quot;language-plaintext highlighter-rouge&quot;&gt;\(\sqrt{3Ã—-1}+(1+x)^2\\)&lt;/code&gt;" style="whiteSpace=wrap;html=1;aspect=fixed;" vertex="1" parent="1">
          <mxGeometry x="210" y="110" width="80" height="80" as="geometry" />
        </mxCell>
        <mxCell id="F0uoHHYgL6mMz67kCVjY-8" value="P" style="whiteSpace=wrap;html=1;aspect=fixed;" vertex="1" parent="1">
          <mxGeometry x="490" y="110" width="80" height="80" as="geometry" />
        </mxCell>
        <mxCell id="F0uoHHYgL6mMz67kCVjY-10" value="" style="endArrow=none;dashed=1;html=1;entryX=1;entryY=0;entryDx=0;entryDy=0;" edge="1" parent="1" target="F0uoHHYgL6mMz67kCVjY-11">
          <mxGeometry width="50" height="50" relative="1" as="geometry">
            <mxPoint x="210" y="110" as="sourcePoint" />
            <mxPoint x="140" y="20" as="targetPoint" />
          </mxGeometry>
        </mxCell>
        <mxCell id="F0uoHHYgL6mMz67kCVjY-12" value="" style="endArrow=none;dashed=1;html=1;exitX=0;exitY=1;exitDx=0;exitDy=0;entryX=1;entryY=1;entryDx=0;entryDy=0;" edge="1" parent="1" source="F0uoHHYgL6mMz67kCVjY-7" target="F0uoHHYgL6mMz67kCVjY-11">
          <mxGeometry width="50" height="50" relative="1" as="geometry">
            <mxPoint x="170" y="250" as="sourcePoint" />
            <mxPoint x="80" y="150" as="targetPoint" />
          </mxGeometry>
        </mxCell>
        <mxCell id="F0uoHHYgL6mMz67kCVjY-15" value="" style="whiteSpace=wrap;html=1;aspect=fixed;fillColor=#dae8fc;strokeColor=#6c8ebf;" vertex="1" parent="1">
          <mxGeometry x="460" y="300" width="80" height="80" as="geometry" />
        </mxCell>
        <mxCell id="F0uoHHYgL6mMz67kCVjY-16" value="" style="whiteSpace=wrap;html=1;aspect=fixed;fillColor=#dae8fc;strokeColor=#6c8ebf;" vertex="1" parent="1">
          <mxGeometry x="445" y="315" width="80" height="80" as="geometry" />
        </mxCell>
        <mxCell id="F0uoHHYgL6mMz67kCVjY-17" value="" style="whiteSpace=wrap;html=1;aspect=fixed;fillColor=#dae8fc;strokeColor=#6c8ebf;" vertex="1" parent="1">
          <mxGeometry x="430" y="335" width="80" height="80" as="geometry" />
        </mxCell>
        <mxCell id="F0uoHHYgL6mMz67kCVjY-30" value="" style="edgeStyle=orthogonalEdgeStyle;rounded=0;orthogonalLoop=1;jettySize=auto;html=1;" edge="1" parent="1" source="F0uoHHYgL6mMz67kCVjY-20" target="F0uoHHYgL6mMz67kCVjY-21">
          <mxGeometry relative="1" as="geometry" />
        </mxCell>
        <mxCell id="F0uoHHYgL6mMz67kCVjY-20" value="&lt;font style=&quot;font-size: 14px&quot;&gt;MLP&lt;/font&gt;" style="rounded=0;whiteSpace=wrap;html=1;" vertex="1" parent="1">
          <mxGeometry x="-350" y="540" width="120" height="60" as="geometry" />
        </mxCell>
        <mxCell id="F0uoHHYgL6mMz67kCVjY-31" value="" style="edgeStyle=orthogonalEdgeStyle;rounded=0;orthogonalLoop=1;jettySize=auto;html=1;" edge="1" parent="1" source="F0uoHHYgL6mMz67kCVjY-21" target="F0uoHHYgL6mMz67kCVjY-22">
          <mxGeometry relative="1" as="geometry" />
        </mxCell>
        <mxCell id="F0uoHHYgL6mMz67kCVjY-21" value="&lt;font style=&quot;font-size: 14px&quot;&gt;GRU&lt;/font&gt;" style="rounded=0;whiteSpace=wrap;html=1;" vertex="1" parent="1">
          <mxGeometry x="-350" y="455" width="120" height="60" as="geometry" />
        </mxCell>
        <mxCell id="F0uoHHYgL6mMz67kCVjY-22" value="&lt;font style=&quot;font-size: 14px&quot;&gt;MLP&lt;/font&gt;" style="rounded=0;whiteSpace=wrap;html=1;" vertex="1" parent="1">
          <mxGeometry x="-350" y="370" width="120" height="60" as="geometry" />
        </mxCell>
      </root>
    </mxGraphModel>
  </diagram>
</mxfile>
